<?xml version="1.0" encoding="UTF-8" standalone="no"?>
<!-- Created with Inkscape (http://www.inkscape.org/) -->

<svg
   width="210mm"
   height="297mm"
   viewBox="0 0 210 297"
   version="1.1"
   id="svg1"
   inkscape:version="1.4.2 (ebf0e940, 2025-05-08)"
   sodipodi:docname="purp.svg"
   xmlns:inkscape="http://www.inkscape.org/namespaces/inkscape"
   xmlns:sodipodi="http://sodipodi.sourceforge.net/DTD/sodipodi-0.dtd"
   xmlns="http://www.w3.org/2000/svg"
   xmlns:svg="http://www.w3.org/2000/svg"
   xmlns:rdf="http://www.w3.org/1999/02/22-rdf-syntax-ns#"
   xmlns:cc="http://creativecommons.org/ns#"
   xmlns:dc="http://purl.org/dc/elements/1.1/">
  <defs
     id="defs1" />
  <sodipodi:namedview
     id="base"
     pagecolor="#ffffff"
     bordercolor="#000000"
     borderopacity="0.3"
     inkscape:pageopacity="0.0"
     inkscape:pageshadow="2"
     inkscape:zoom="0.98994949"
     inkscape:cx="462.14479"
     inkscape:cy="724.27938"
     inkscape:document-units="mm"
     inkscape:showpageshadow="0"
     inkscape:pagecheckerboard="1"
     inkscape:deskcolor="#d1d1d1"
     inkscape:window-width="1264"
     inkscape:window-height="547"
     inkscape:window-x="85"
     inkscape:window-y="153"
     inkscape:window-maximized="0"
     inkscape:current-layer="svg1" />
  <metadata
     id="metadata1">
    <rdf:RDF>
      <cc:Work
         rdf:about="">
        <dc:format>image/svg+xml</dc:format>
        <dc:type
           rdf:resource="http://purl.org/dc/dcmitype/StillImage" />
      </cc:Work>
    </rdf:RDF>
  </metadata>
  <rect
     style="fill:#800080;fill-opacity:1;stroke-width:0.680503"
     id="rect48"
     width="96.217026"
     height="91.406174"
     x="58.264751"
     y="149.67093" />
  <path
     style="fill:#6c2f6c;fill-opacity:1;stroke-width:0.264583"
     d="m 58.799295,150.20547 17.639789,23.51972 -1.603618,53.98845 c 0,0 -12.828937,11.22532 -14.967093,12.82893 -2.138156,1.60362 -1.069078,-90.3371 -1.069078,-90.3371 z"
     id="path49"
     sodipodi:nodetypes="cccsc" />
  <path
     style="fill:#561356;fill-opacity:1;stroke-width:0.264583"
     d="m 154.40924,150.40824 -18.4416,22.45064 1.60361,53.98845 c 0,0 15.90454,11.78979 16.30345,14.43255 0.95587,6.33272 0.53453,-90.87164 0.53454,-90.87164 z"
     id="path49-5"
     sodipodi:nodetypes="cccsc" />
  <path
     style="fill:#461946;fill-opacity:1;stroke-width:0.264583"
     d="m 58.961479,240.55089 15.234364,-14.43256 63.075617,-0.8018 c 0,0 15.23436,12.82894 16.83797,14.96709 1.60362,2.13816 -95.147951,0.26727 -95.147951,0.26727 z"
     id="path49-1"
     sodipodi:nodetypes="cccsc" />
  <path
     style="fill:#983798;fill-opacity:1;stroke-width:0.264583"
     d="m 58.352037,150.42489 18.174329,23.787 59.868394,-0.80183 c 0,0 16.83798,-21.11429 18.44159,-23.25244 1.60362,-2.13816 -96.484313,0.26727 -96.484313,0.26727 z"
     id="path49-1-5"
     sodipodi:nodetypes="cccsc" />
  <path
     style="fill:#800080;fill-opacity:1;stroke-width:0.151588"
     d="m 74.729357,150.30865 12.285222,11.5511 40.468981,-0.38937 c 0,0 11.38189,-10.25322 12.46588,-11.29152 1.08399,-1.03831 -65.220083,0.12979 -65.220083,0.12979 z"
     id="path49-1-5-5"
     sodipodi:nodetypes="cccsc" />
  <path
     style="fill:#800080;fill-opacity:1;stroke-width:0.151588"
     d="m 58.649371,229.22447 11.5511,-12.28522 -0.38937,-40.46898 c 0,0 -10.25322,-11.38189 -11.29152,-12.46588 -1.03831,-1.08399 0.12979,65.22008 0.12979,65.22008 z"
     id="path49-1-5-5-6"
     sodipodi:nodetypes="cccsc" />
  <path
     style="fill:#6c2f6c;fill-opacity:1;stroke-width:0.264583"
     d="m 75.904544,173.99246 60.402916,-0.26727 -30.46873,26.19241 z"
     id="path50" />
  <path
     style="fill:#662066;fill-opacity:1;stroke-width:0.264583"
     d="m 76.171816,173.19065 12.027127,0.80181 18.174327,26.72695 -30.201454,-17.37252 z"
     id="path51" />
  <path
     style="fill:#5f275f;fill-opacity:1;stroke-width:0.273397"
     d="m 105.03692,200.71941 20.83781,-26.98331 10.41891,-0.27818 0.54836,9.73624 z"
     id="path52" />
  <path
     style="fill:#9e419e;fill-opacity:1;stroke-width:0.264583"
     d="m 74.03366,226.64456 31.80507,-26.72696 32.33962,26.45969 z"
     id="path53" />
  <path
     style="fill:#853685;fill-opacity:1;stroke-width:0.264583"
     d="m 106.106,199.65033 -31.270534,17.90706 -0.801806,9.6217 9.888971,-0.26726 z"
     id="path54" />
  <path
     style="fill:#794279;fill-opacity:1;stroke-width:0.264583"
     d="m 105.85349,199.55492 31.27053,17.90706 0.80181,9.6217 -9.88897,-0.26726 z"
     id="path54-8" />
  <path
     style="fill:#b000b0;fill-opacity:1;stroke-width:0.264583"
     d="m 76.439084,151.80909 23.519718,10.95805 -22.450639,5.07812 -9.888974,-14.43255 z"
     id="path55" />
  <path
     style="fill:#835183;fill-opacity:1;stroke-width:0.271743"
     d="m 153.94725,167.84526 0.53453,66.81739 -8.28535,-13.53264 -0.26727,-40.31597 z"
     id="path56" />
  <path
     style="fill:#7e297e;fill-opacity:1;stroke-width:0.264583"
     d="m 110.91685,233.32629 -8.28535,7.75082 h 48.91032 l -11.22532,-8.55263 z"
     id="path57" />
</svg>
