<?xml version="1.0" encoding="UTF-8" standalone="no"?>
<!-- Created with Inkscape (http://www.inkscape.org/) -->

<svg
   width="403.142"
   height="374"
   viewBox="0 0 106.66533 98.954234"
   version="1.1"
   id="svg1"
   inkscape:version="1.4 (86a8ad7, 2024-10-11)"
   sodipodi:docname="amethyst.svg"
   xmlns:inkscape="http://www.inkscape.org/namespaces/inkscape"
   xmlns:sodipodi="http://sodipodi.sourceforge.net/DTD/sodipodi-0.dtd"
   xmlns="http://www.w3.org/2000/svg"
   xmlns:svg="http://www.w3.org/2000/svg"
   xmlns:rdf="http://www.w3.org/1999/02/22-rdf-syntax-ns#"
   xmlns:cc="http://creativecommons.org/ns#"
   xmlns:dc="http://purl.org/dc/elements/1.1/">
  <defs
     id="defs1" />
  <sodipodi:namedview
     id="base"
     pagecolor="#ffffff"
     bordercolor="#000000"
     borderopacity="0.3"
     inkscape:pageopacity="0.0"
     inkscape:pageshadow="2"
     inkscape:zoom="0.98994949"
     inkscape:cx="462.64987"
     inkscape:cy="319.71328"
     inkscape:document-units="mm"
     inkscape:showpageshadow="0"
     inkscape:pagecheckerboard="1"
     inkscape:deskcolor="#d1d1d1"
     inkscape:window-width="1920"
     inkscape:window-height="1009"
     inkscape:window-x="-8"
     inkscape:window-y="-8"
     inkscape:window-maximized="1"
     inkscape:current-layer="svg1" />
  <metadata
     id="metadata1">
    <rdf:RDF>
      <cc:Work
         rdf:about="">
        <dc:format>image/svg+xml</dc:format>
        <dc:type
           rdf:resource="http://purl.org/dc/dcmitype/StillImage" />
      </cc:Work>
    </rdf:RDF>
  </metadata>
  <rect
     style="fill:#800080;fill-opacity:1;stroke-width:0.616598"
     id="rect48"
     width="87.181389"
     height="82.822311"
     x="10.139802"
     y="7.8288879" />
  <path
     style="fill:#6c2f6c;fill-opacity:1;stroke-width:0.239736"
     d="M 10.624147,8.3132306 26.607402,29.624238 25.154377,78.542689 c 0,0 -11.624184,10.171162 -13.561548,11.624178 C 9.6554646,91.619893 10.624147,8.3132306 10.624147,8.3132306 Z"
     id="path49"
     sodipodi:nodetypes="cccsc" />
  <path
     style="fill:#561356;fill-opacity:1;stroke-width:0.239736"
     d="M 97.255465,8.4969582 80.545691,28.839282 81.998707,77.757733 c 0,0 14.410968,10.682623 14.772416,13.077204 0.866106,5.738027 0.484334,-82.3379788 0.484342,-82.3379788 z"
     id="path49-5"
     sodipodi:nodetypes="cccsc" />
  <path
     style="fill:#461946;fill-opacity:1;stroke-width:0.239736"
     d="M 10.7711,90.174406 24.574821,77.097192 81.72707,76.370688 c 0,0 13.80372,11.624188 15.25674,13.561547 1.453026,1.937368 -86.21271,0.242171 -86.21271,0.242171 z"
     id="path49-1"
     sodipodi:nodetypes="cccsc" />
  <path
     style="fill:#983798;fill-opacity:1;stroke-width:0.239736"
     d="M 10.21889,8.5120453 26.686487,30.065233 80.9327,29.338701 c 0,0 15.256749,-19.131469 16.709767,-21.0688273 C 99.095492,6.3325063 10.21889,8.5120453 10.21889,8.5120453 Z"
     id="path49-1-5"
     sodipodi:nodetypes="cccsc" />
  <path
     style="fill:#800080;fill-opacity:1;stroke-width:0.137352"
     d="M 25.058234,8.4067207 36.189763,18.873069 72.858345,18.520264 c 0,0 10.313025,-9.2903509 11.295219,-10.2311449 0.982193,-0.9408031 -59.09533,0.1176016 -59.09533,0.1176016 z"
     id="path49-1-5-5"
     sodipodi:nodetypes="cccsc" />
  <path
     style="fill:#800080;fill-opacity:1;stroke-width:0.137352"
     d="M 10.488302,79.911639 20.95465,68.78011 20.601845,32.111531 c 0,0 -9.290351,-10.31303 -10.231145,-11.295223 -0.9408031,-0.982194 0.117602,59.095331 0.117602,59.095331 z"
     id="path49-1-5-5-6"
     sodipodi:nodetypes="cccsc" />
  <path
     style="fill:#6c2f6c;fill-opacity:1;stroke-width:0.239736"
     d="M 26.12306,29.866409 80.853599,29.624238 53.246158,53.356946 Z"
     id="path50" />
  <path
     style="fill:#662066;fill-opacity:1;stroke-width:0.239736"
     d="M 26.365233,29.139895 37.262904,29.866409 53.730499,54.083459 26.365233,38.342374 Z"
     id="path51" />
  <path
     style="fill:#5f275f;fill-opacity:1;stroke-width:0.247722"
     d="m 52.519645,54.083459 18.880953,-24.449335 9.440478,-0.252057 0.496864,8.82192 z"
     id="path52" />
  <path
     style="fill:#9e419e;fill-opacity:1;stroke-width:0.239736"
     d="M 24.427869,77.574005 53.246158,53.356946 82.548795,77.331833 Z"
     id="path53" />
  <path
     style="fill:#853685;fill-opacity:1;stroke-width:0.239736"
     d="m 53.488329,53.114775 -28.333952,16.225426 -0.726508,8.718136 8.960307,-0.242161 z"
     id="path54" />
  <path
     style="fill:#794279;fill-opacity:1;stroke-width:0.239736"
     d="m 53.259532,53.028324 28.333944,16.225428 0.726513,8.718136 -8.960305,-0.242163 z"
     id="path54-8" />
  <path
     style="fill:#b000b0;fill-opacity:1;stroke-width:0.239736"
     d="M 26.607402,9.7662561 47.918408,19.695247 27.576085,24.296486 18.615774,11.219281 Z"
     id="path55" />
  <path
     style="fill:#835183;fill-opacity:1;stroke-width:0.246224"
     d="M 96.836861,24.296486 97.321193,84.839125 89.813906,72.57732 89.571735,36.047381 Z"
     id="path56" />
  <path
     style="fill:#7e297e;fill-opacity:1;stroke-width:0.239736"
     d="m 57.847397,83.62826 -7.507282,7.022949 H 94.657316 L 84.486153,82.901747 Z"
     id="path57" />
</svg>
